<?xml version="1.0" encoding="UTF-8" standalone="no"?>
<svg
   height="128"
   viewBox="0 0 128 128"
   width="128"
   version="1.1"
   id="svg8"
   xmlns="http://www.w3.org/2000/svg"
   xmlns:svg="http://www.w3.org/2000/svg">
  <defs
     id="defs8" />
  <linearGradient
     id="a"
     gradientTransform="matrix(0.45451,0,0,0.455522,-1210.2921,616.17261)"
     gradientUnits="userSpaceOnUse"
     x1="2689.252"
     x2="2918.0698"
     y1="-1106.803"
     y2="-1106.803">
    <stop
       offset="0"
       stop-color="#62a0ea"
       id="stop1"
       style="stop-color:#ff7800;stop-opacity:1;" />
    <stop
       offset="0.0576991"
       stop-color="#afd4ff"
       id="stop2"
       style="stop-color:#ffbe6f;stop-opacity:1;" />
    <stop
       offset="0.122204"
       stop-color="#62a0ea"
       id="stop3"
       style="stop-color:#ff7800;stop-opacity:1;" />
    <stop
       offset="0.87330598"
       stop-color="#62a0ea"
       id="stop4"
       style="stop-color:#ff7800;stop-opacity:1;" />
    <stop
       offset="0.95599699"
       stop-color="#c0d5ea"
       id="stop5"
       style="stop-color:#deb890;stop-opacity:1;" />
    <stop
       offset="1"
       stop-color="#62a0ea"
       id="stop6"
       style="stop-color:#ff7800;stop-opacity:1;" />
  </linearGradient>
  <path
     d="M 21.976562,12 C 16.449219,12 12,16.460938 12,22 v 86.03125 c 0,5.54297 4.449219,10 9.976562,10 h 84.042968 c 5.53125,0 9.98047,-4.45703 9.98047,-10 V 35.945312 c 0,-6.628906 -5.35937,-12 -11.97266,-12 H 58 c -2.453125,0 -4.695312,-1.386718 -5.796875,-3.582031 L 50.699219,17.371094 C 49.042969,14.078125 45.679688,12 42,12 Z m 0,0"
     fill="#438de6"
     id="path6"
     style="fill:#c64600;fill-opacity:1" />
  <path
     d="M 65.976562,36 C 63.230469,36 60.75,37.101562 58.949219,38.890625 56.675781,41.144531 53.566406,44 50.316406,44 H 21.976562 C 16.449219,44 12,48.460938 12,54 v 54.03125 c 0,5.54297 4.449219,10 9.976562,10 h 84.042968 c 5.53125,0 9.98047,-4.45703 9.98047,-10 V 46 c 0,-5.539062 -4.44922,-10 -9.98047,-10 z m 0,0"
     fill="url(#a)"
     id="path7"
     style="fill:url(#a)" />
  <path
     d="M 65.976562,32 C 63.230469,32 60.75,33.101562 58.949219,34.890625 56.675781,37.144531 53.566406,40 50.316406,40 H 21.976562 C 16.449219,40 12,44.460938 12,50 v 55.97656 c 0,5.53907 4.449219,10 9.976562,10 h 84.042968 c 5.53125,0 9.98047,-4.46093 9.98047,-10 V 42 c 0,-5.539062 -4.44922,-10 -9.98047,-10 z m 0,0"
     fill="#a4caee"
     id="path8"
     style="fill:#ffbe6f;fill-opacity:1" />
</svg>
